STARTFONT 2.1
FONT ledmatrix-3x5
SIZE 5 75 75
FONTBOUNDINGBOX 5 5 0 0
STARTPROPERTIES 2
FONT_ASCENT 5
FONT_DESCENT 0
ENDPROPERTIES
CHARS 78
STARTCHAR U+0020
ENCODING 32
SWIDTH 300 0
DWIDTH 4 0
BBX 3 5 0 0
BITMAP
00
00
00
00
00
ENDCHAR
STARTCHAR U+0021
ENCODING 33
SWIDTH 300 0
DWIDTH 4 0
BBX 3 5 0 0
BITMAP
40
40
40
00
40
ENDCHAR
STARTCHAR U+0022
ENCODING 34
SWIDTH 300 0
DWIDTH 4 0
BBX 3 5 0 0
BITMAP
00
00
00
00
00
ENDCHAR
STARTCHAR U+0027
ENCODING 39
SWIDTH 300 0
DWIDTH 4 0
BBX 3 5 0 0
BITMAP
40
40
00
00
00
ENDCHAR
STARTCHAR U+0028
ENCODING 40
SWIDTH 300 0
DWIDTH 4 0
BBX 3 5 0 0
BITMAP
00
40
00
40
00
ENDCHAR
STARTCHAR U+0029
ENCODING 41
SWIDTH 300 0
DWIDTH 4 0
BBX 3 5 0 0
BITMAP
00
40
00
40
00
ENDCHAR
STARTCHAR U+002A
ENCODING 42
SWIDTH 300 0
DWIDTH 4 0
BBX 3 5 0 0
BITMAP
00
E0
E0
E0
00
ENDCHAR
STARTCHAR U+002B
ENCODING 43
SWIDTH 300 0
DWIDTH 4 0
BBX 3 5 0 0
BITMAP
00
40
E0
40
00
ENDCHAR
STARTCHAR U+002C
ENCODING 44
SWIDTH 300 0
DWIDTH 4 0
BBX 3 5 0 0
BITMAP
00
00
00
40
00
ENDCHAR
STARTCHAR U+002D
ENCODING 45
SWIDTH 300 0
DWIDTH 4 0
BBX 3 5 0 0
BITMAP
00
00
E0
00
00
ENDCHAR
STARTCHAR U+002E
ENCODING 46
SWIDTH 300 0
DWIDTH 4 0
BBX 3 5 0 0
BITMAP
00
00
00
00
40
ENDCHAR
STARTCHAR U+002F
ENCODING 47
SWIDTH 300 0
DWIDTH 4 0
BBX 3 5 0 0
BITMAP
20
00
00
00
00
ENDCHAR
STARTCHAR U+0030
ENCODING 48
SWIDTH 300 0
DWIDTH 4 0
BBX 3 5 0 0
BITMAP
40
A0
E0
A0
40
ENDCHAR
STARTCHAR U+0031
ENCODING 49
SWIDTH 300 0
DWIDTH 4 0
BBX 3 5 0 0
BITMAP
40
40
40
40
40
ENDCHAR
STARTCHAR U+0032
ENCODING 50
SWIDTH 300 0
DWIDTH 4 0
BBX 3 5 0 0
BITMAP
40
A0
00
00
E0
ENDCHAR
STARTCHAR U+0033
ENCODING 51
SWIDTH 300 0
DWIDTH 4 0
BBX 3 5 0 0
BITMAP
C0
20
40
20
C0
ENDCHAR
STARTCHAR U+0034
ENCODING 52
SWIDTH 300 0
DWIDTH 4 0
BBX 3 5 0 0
BITMAP
00
40
80
00
00
ENDCHAR
STARTCHAR U+0035
ENCODING 53
SWIDTH 300 0
DWIDTH 4 0
BBX 3 5 0 0
BITMAP
E0
80
C0
20
C0
ENDCHAR
STARTCHAR U+0036
ENCODING 54
SWIDTH 300 0
DWIDTH 4 0
BBX 3 5 0 0
BITMAP
40
00
C0
A0
40
ENDCHAR
STARTCHAR U+0037
ENCODING 55
SWIDTH 300 0
DWIDTH 4 0
BBX 3 5 0 0
BITMAP
E0
20
40
00
00
ENDCHAR
STARTCHAR U+0038
ENCODING 56
SWIDTH 300 0
DWIDTH 4 0
BBX 3 5 0 0
BITMAP
40
A0
40
A0
40
ENDCHAR
STARTCHAR U+0039
ENCODING 57
SWIDTH 300 0
DWIDTH 4 0
BBX 3 5 0 0
BITMAP
40
A0
60
00
C0
ENDCHAR
STARTCHAR U+003A
ENCODING 58
SWIDTH 300 0
DWIDTH 4 0
BBX 3 5 0 0
BITMAP
00
40
00
00
00
ENDCHAR
STARTCHAR U+003B
ENCODING 59
SWIDTH 300 0
DWIDTH 4 0
BBX 3 5 0 0
BITMAP
00
40
00
40
00
ENDCHAR
STARTCHAR U+003F
ENCODING 63
SWIDTH 300 0
DWIDTH 4 0
BBX 3 5 0 0
BITMAP
40
A0
00
00
40
ENDCHAR
STARTCHAR U+0041
ENCODING 65
SWIDTH 300 0
DWIDTH 4 0
BBX 3 5 0 0
BITMAP
40
A0
E0
A0
A0
ENDCHAR
STARTCHAR U+0042
ENCODING 66
SWIDTH 300 0
DWIDTH 4 0
BBX 3 5 0 0
BITMAP
C0
A0
C0
A0
C0
ENDCHAR
STARTCHAR U+0043
ENCODING 67
SWIDTH 300 0
DWIDTH 4 0
BBX 3 5 0 0
BITMAP
40
A0
80
A0
40
ENDCHAR
STARTCHAR U+0044
ENCODING 68
SWIDTH 300 0
DWIDTH 4 0
BBX 3 5 0 0
BITMAP
C0
A0
A0
A0
C0
ENDCHAR
STARTCHAR U+0045
ENCODING 69
SWIDTH 300 0
DWIDTH 4 0
BBX 3 5 0 0
BITMAP
E0
80
C0
80
E0
ENDCHAR
STARTCHAR U+0046
ENCODING 70
SWIDTH 300 0
DWIDTH 4 0
BBX 3 5 0 0
BITMAP
E0
80
C0
80
80
ENDCHAR
STARTCHAR U+0047
ENCODING 71
SWIDTH 300 0
DWIDTH 4 0
BBX 3 5 0 0
BITMAP
40
A0
E0
A0
40
ENDCHAR
STARTCHAR U+0048
ENCODING 72
SWIDTH 300 0
DWIDTH 4 0
BBX 3 5 0 0
BITMAP
A0
A0
E0
A0
A0
ENDCHAR
STARTCHAR U+0049
ENCODING 73
SWIDTH 300 0
DWIDTH 4 0
BBX 3 5 0 0
BITMAP
40
40
40
40
40
ENDCHAR
STARTCHAR U+004A
ENCODING 74
SWIDTH 300 0
DWIDTH 4 0
BBX 3 5 0 0
BITMAP
20
20
20
A0
40
ENDCHAR
STARTCHAR U+004B
ENCODING 75
SWIDTH 300 0
DWIDTH 4 0
BBX 3 5 0 0
BITMAP
A0
80
80
80
A0
ENDCHAR
STARTCHAR U+004C
ENCODING 76
SWIDTH 300 0
DWIDTH 4 0
BBX 3 5 0 0
BITMAP
80
80
80
80
E0
ENDCHAR
STARTCHAR U+004D
ENCODING 77
SWIDTH 300 0
DWIDTH 4 0
BBX 3 5 0 0
BITMAP
A0
A0
E0
A0
A0
ENDCHAR
STARTCHAR U+004E
ENCODING 78
SWIDTH 300 0
DWIDTH 4 0
BBX 3 5 0 0
BITMAP
A0
A0
A0
A0
A0
ENDCHAR
STARTCHAR U+004F
ENCODING 79
SWIDTH 300 0
DWIDTH 4 0
BBX 3 5 0 0
BITMAP
40
A0
A0
A0
40
ENDCHAR
STARTCHAR U+0050
ENCODING 80
SWIDTH 300 0
DWIDTH 4 0
BBX 3 5 0 0
BITMAP
C0
A0
C0
80
80
ENDCHAR
STARTCHAR U+0051
ENCODING 81
SWIDTH 300 0
DWIDTH 4 0
BBX 3 5 0 0
BITMAP
40
A0
A0
80
60
ENDCHAR
STARTCHAR U+0052
ENCODING 82
SWIDTH 300 0
DWIDTH 4 0
BBX 3 5 0 0
BITMAP
C0
A0
C0
80
A0
ENDCHAR
STARTCHAR U+0053
ENCODING 83
SWIDTH 300 0
DWIDTH 4 0
BBX 3 5 0 0
BITMAP
60
80
40
20
C0
ENDCHAR
STARTCHAR U+0054
ENCODING 84
SWIDTH 300 0
DWIDTH 4 0
BBX 3 5 0 0
BITMAP
E0
40
40
40
40
ENDCHAR
STARTCHAR U+0055
ENCODING 85
SWIDTH 300 0
DWIDTH 4 0
BBX 3 5 0 0
BITMAP
A0
A0
A0
A0
40
ENDCHAR
STARTCHAR U+0056
ENCODING 86
SWIDTH 300 0
DWIDTH 4 0
BBX 3 5 0 0
BITMAP
A0
A0
A0
00
40
ENDCHAR
STARTCHAR U+0057
ENCODING 87
SWIDTH 300 0
DWIDTH 4 0
BBX 3 5 0 0
BITMAP
A0
A0
E0
E0
00
ENDCHAR
STARTCHAR U+0058
ENCODING 88
SWIDTH 300 0
DWIDTH 4 0
BBX 3 5 0 0
BITMAP
A0
A0
40
A0
A0
ENDCHAR
STARTCHAR U+0059
ENCODING 89
SWIDTH 300 0
DWIDTH 4 0
BBX 3 5 0 0
BITMAP
A0
A0
40
40
40
ENDCHAR
STARTCHAR U+005A
ENCODING 90
SWIDTH 300 0
DWIDTH 4 0
BBX 3 5 0 0
BITMAP
E0
20
40
80
E0
ENDCHAR
STARTCHAR U+005F
ENCODING 95
SWIDTH 300 0
DWIDTH 4 0
BBX 3 5 0 0
BITMAP
00
00
00
00
E0
ENDCHAR
STARTCHAR U+0061
ENCODING 97
SWIDTH 300 0
DWIDTH 4 0
BBX 3 5 0 0
BITMAP
40
A0
E0
A0
A0
ENDCHAR
STARTCHAR U+0062
ENCODING 98
SWIDTH 300 0
DWIDTH 4 0
BBX 3 5 0 0
BITMAP
C0
A0
C0
A0
C0
ENDCHAR
STARTCHAR U+0063
ENCODING 99
SWIDTH 300 0
DWIDTH 4 0
BBX 3 5 0 0
BITMAP
40
A0
80
A0
40
ENDCHAR
STARTCHAR U+0064
ENCODING 100
SWIDTH 300 0
DWIDTH 4 0
BBX 3 5 0 0
BITMAP
C0
A0
A0
A0
C0
ENDCHAR
STARTCHAR U+0065
ENCODING 101
SWIDTH 300 0
DWIDTH 4 0
BBX 3 5 0 0
BITMAP
E0
80
C0
80
E0
ENDCHAR
STARTCHAR U+0066
ENCODING 102
SWIDTH 300 0
DWIDTH 4 0
BBX 3 5 0 0
BITMAP
E0
80
C0
80
80
ENDCHAR
STARTCHAR U+0067
ENCODING 103
SWIDTH 300 0
DWIDTH 4 0
BBX 3 5 0 0
BITMAP
40
A0
E0
A0
40
ENDCHAR
STARTCHAR U+0068
ENCODING 104
SWIDTH 300 0
DWIDTH 4 0
BBX 3 5 0 0
BITMAP
A0
A0
E0
A0
A0
ENDCHAR
STARTCHAR U+0069
ENCODING 105
SWIDTH 300 0
DWIDTH 4 0
BBX 3 5 0 0
BITMAP
40
40
40
40
40
ENDCHAR
STARTCHAR U+006A
ENCODING 106
SWIDTH 300 0
DWIDTH 4 0
BBX 3 5 0 0
BITMAP
20
20
20
A0
40
ENDCHAR
STARTCHAR U+006B
ENCODING 107
SWIDTH 300 0
DWIDTH 4 0
BBX 3 5 0 0
BITMAP
A0
80
80
80
A0
ENDCHAR
STARTCHAR U+006C
ENCODING 108
SWIDTH 300 0
DWIDTH 4 0
BBX 3 5 0 0
BITMAP
80
80
80
80
E0
ENDCHAR
STARTCHAR U+006D
ENCODING 109
SWIDTH 300 0
DWIDTH 4 0
BBX 3 5 0 0
BITMAP
A0
A0
E0
A0
A0
ENDCHAR
STARTCHAR U+006E
ENCODING 110
SWIDTH 300 0
DWIDTH 4 0
BBX 3 5 0 0
BITMAP
A0
A0
A0
A0
A0
ENDCHAR
STARTCHAR U+006F
ENCODING 111
SWIDTH 300 0
DWIDTH 4 0
BBX 3 5 0 0
BITMAP
40
A0
A0
A0
40
ENDCHAR
STARTCHAR U+0070
ENCODING 112
SWIDTH 300 0
DWIDTH 4 0
BBX 3 5 0 0
BITMAP
C0
A0
C0
80
80
ENDCHAR
STARTCHAR U+0071
ENCODING 113
SWIDTH 300 0
DWIDTH 4 0
BBX 3 5 0 0
BITMAP
40
A0
A0
80
60
ENDCHAR
STARTCHAR U+0072
ENCODING 114
SWIDTH 300 0
DWIDTH 4 0
BBX 3 5 0 0
BITMAP
C0
A0
C0
80
A0
ENDCHAR
STARTCHAR U+0073
ENCODING 115
SWIDTH 300 0
DWIDTH 4 0
BBX 3 5 0 0
BITMAP
60
80
40
20
C0
ENDCHAR
STARTCHAR U+0074
ENCODING 116
SWIDTH 300 0
DWIDTH 4 0
BBX 3 5 0 0
BITMAP
E0
40
40
40
40
ENDCHAR
STARTCHAR U+0075
ENCODING 117
SWIDTH 300 0
DWIDTH 4 0
BBX 3 5 0 0
BITMAP
A0
A0
A0
A0
40
ENDCHAR
STARTCHAR U+0076
ENCODING 118
SWIDTH 300 0
DWIDTH 4 0
BBX 3 5 0 0
BITMAP
A0
A0
A0
00
40
ENDCHAR
STARTCHAR U+0077
ENCODING 119
SWIDTH 300 0
DWIDTH 4 0
BBX 3 5 0 0
BITMAP
A0
A0
E0
E0
00
ENDCHAR
STARTCHAR U+0078
ENCODING 120
SWIDTH 300 0
DWIDTH 4 0
BBX 3 5 0 0
BITMAP
A0
A0
40
A0
A0
ENDCHAR
STARTCHAR U+0079
ENCODING 121
SWIDTH 300 0
DWIDTH 4 0
BBX 3 5 0 0
BITMAP
A0
A0
40
40
40
ENDCHAR
STARTCHAR U+007A
ENCODING 122
SWIDTH 300 0
DWIDTH 4 0
BBX 3 5 0 0
BITMAP
E0
20
40
80
E0
ENDCHAR
ENDFONT
